<svg xmlns="http://www.w3.org/2000/svg" version="1.1" xmlns:xlink="http://www.w3.org/1999/xlink" xmlns:svgjs="http://svgjs.dev/svgjs" width="1500" height="1500" viewBox="0 0 1500 1500"><g transform="matrix(1,0,0,1,-0.21332335329316265,-0.21332335329350371)"><svg viewBox="0 0 334 334" data-background-color="#ffffff" preserveAspectRatio="xMidYMid meet" height="1500" width="1500" xmlns="http://www.w3.org/2000/svg" xmlns:xlink="http://www.w3.org/1999/xlink"><g id="tight-bounds" transform="matrix(1,0,0,1,0.04749999999998522,0.04750000000001364)"><svg viewBox="0 0 333.90454557049503 333.90454557049503" height="333.90454557049503" width="333.90454557049503"><g><svg></svg></g><g><svg viewBox="0 0 333.90454557049503 333.90454557049503" height="333.90454557049503" width="333.90454557049503"><g><path d="M0 166.952c0-92.205 74.747-166.952 166.952-166.952 92.205 0 166.952 74.747 166.953 166.952 0 92.205-74.747 166.952-166.953 166.953-92.205 0-166.952-74.747-166.952-166.953zM166.952 325.199c87.397 0 158.247-70.85 158.247-158.247 0-87.397-70.85-158.247-158.247-158.247-87.397 0-158.247 70.85-158.247 158.247 0 87.397 70.85 158.247 158.247 158.247z" data-fill-palette-color="tertiary" fill="#ea3c12" stroke="transparent"></path><ellipse rx="160.27418187383762" ry="160.27418187383762" cx="166.95227278524752" cy="166.95227278524752" fill="#ea3c12" stroke="transparent" stroke-width="0" fill-opacity="1" data-fill-palette-color="tertiary"></ellipse></g><g transform="matrix(1,0,0,1,129.08143785523134,71.17305217166896)"><svg viewBox="0 0 75.74166986003236 191.55844122715712" height="191.55844122715712" width="75.74166986003236"><g><svg viewBox="0 0 75.74166986003236 191.55844122715712" height="191.55844122715712" width="75.74166986003236"><g><svg viewBox="0 0 149.3748655069047 377.7843352001149" height="191.55844122715712" width="75.74166986003236"><g transform="matrix(1,0,0,1,0,113.27896751404418)"><svg viewBox="0 0 149.3748655069047 264.50536768607077" height="264.50536768607077" width="149.3748655069047"><g id="textblocktransform"><svg viewBox="0 0 149.3748655069047 264.50536768607077" height="264.50536768607077" width="149.3748655069047" id="textblock"><g><svg viewBox="0 0 149.3748655069047 190.3746100603733" height="190.3746100603733" width="149.3748655069047"><g transform="matrix(1,0,0,1,0,0)"><svg width="149.3748655069047" viewBox="1.9 -36.25 28.6 36.45" height="190.3746100603733" data-palette-color="#ffffff"><path d="M12.65 0.2L12.65 0.2Q11.1 0.2 9.93-0.6 8.75-1.4 8.8-3L8.8-3Q8.9-5.8 9.22-9.2 9.55-12.6 10-16.13 10.45-19.65 10.93-22.9 11.4-26.15 11.8-28.7L11.8-28.7Q10.9-28.8 10.05-28.85 9.2-28.9 8.5-28.9L8.5-28.9Q6.4-28.9 4.73-28.5 3.05-28.1 1.9-27.1L1.9-27.1Q1.9-30.25 2.43-32.23 2.95-34.2 4.38-35.1 5.8-36 8.55-36L8.55-36Q10.55-36 13.03-35.68 15.5-35.35 18.05-35 20.6-34.65 22.8-34.65L22.8-34.65Q24.6-34.65 26.03-35 27.45-35.35 28.2-36.25L28.2-36.25Q29.3-35.9 29.9-34.73 30.5-33.55 30.5-32.15L30.5-32.15Q30.5-30.9 29.95-29.73 29.4-28.55 28.2-27.78 27-27 24.95-27L24.95-27Q24-27 22.63-27.18 21.25-27.35 19.7-27.55L19.7-27.55Q19.15-24.55 18.57-20.38 18-16.2 17.63-11.4 17.25-6.6 17.15-1.65L17.15-1.65Q16.25-0.7 15.03-0.25 13.8 0.2 12.65 0.2Z" opacity="1" transform="matrix(1,0,0,1,0,0)" fill="#ffffff" class="wordmark-text-0" data-fill-palette-color="quaternary" id="text-0"></path></svg></g></svg></g><g transform="matrix(1,0,0,1,0,235.317486504986)"><svg viewBox="0 0 149.3748655069047 29.187881181084787" height="29.187881181084787" width="149.3748655069047"><g transform="matrix(1,0,0,1,0,0)"><svg width="149.3748655069047" viewBox="1.3 -40.8 276.08 53.949999999999996" height="29.187881181084787" data-palette-color="#ffffff"><path d="M1.3-28.2L1.35-39.8 35.9-39.8 35.95-28.2Q34.85-28 34.1-28.2L34.1-28.2 31.75-37.25 21.35-37.25 21.35-2.2 26.4-1.7Q26.6-0.95 26.4 0.15L26.4 0.15Q23.25 0 18.8 0L18.8 0Q15.35 0 11.15 0.1L11.15 0.1Q10.85-0.8 11.15-1.7L11.15-1.7 15.8-2.3Q16-4.2 16-8.15L16-8.15 16-37.25 5.5-37.25 3.15-28.2Q2.4-28 1.3-28.2L1.3-28.2ZM55.55-14.1L55.55-14.1 39.85-14.1Q39.4-1.35 47.5-1.35L47.5-1.35Q50.95-1.35 54.55-4.4L54.55-4.4Q55.3-3.95 55.7-2.85L55.7-2.85Q52.25 1 46.95 1L46.95 1Q34.75 1 34.75-13.35L34.75-13.35Q34.75-20.15 38.35-23.93 41.95-27.7 46.75-27.7L46.75-27.7Q52-27.7 54.3-24.05 56.6-20.4 56.6-14.55L56.6-14.55Q56.1-14.15 55.55-14.1ZM46.65-25.7L46.65-25.7Q44.05-25.7 42.22-23 40.4-20.3 40-16.1L40-16.1 46.2-16.1Q49.9-16.1 51.5-16.55L51.5-16.55Q51.5-20.65 50.25-23.18 49-25.7 46.65-25.7ZM82.65-20.3L82.65-20.3Q81.59-19.2 77.7-19.25L77.7-19.25Q76.9-25.55 73.15-25.55L73.15-25.55Q70.2-25.55 68.15-22.15 66.09-18.75 66.09-13.2L66.09-13.2Q66.09-7.5 67.9-4.42 69.7-1.35 73.3-1.35L73.3-1.35Q77.09-1.35 80.75-4.45L80.75-4.45Q81.5-4 81.9-2.9L81.9-2.9Q78.25 1 72.75 1L72.75 1Q67.5 1 64.15-2.63 60.8-6.25 60.8-13.3L60.8-13.3Q60.8-20.05 64.52-23.88 68.25-27.7 73.05-27.7L73.05-27.7Q76.84-27.7 79.75-25.8 82.65-23.9 82.65-20.3ZM89.44-8.7L89.44-32.45Q89.44-35.75 89.29-37.35L89.29-37.35 85.34-37.85Q85.14-38.6 85.34-39.75L85.34-39.75Q88.69-40 93.89-40.8L93.89-40.8Q94.34-40.3 94.39-39.8L94.39-39.8Q94.14-38.5 94.14-31.7L94.14-31.7 94.14-22.25Q97.84-27.35 103.04-27.35L103.04-27.35Q106.14-27.35 108.34-25.8 110.54-24.25 110.54-20.5L110.54-20.5 110.54-2.55 114.59-1.8Q114.79-1 114.59 0.2L114.59 0.2Q111.44 0.05 108.19 0.05L108.19 0.05Q105.89 0.05 101.69 0.15L101.69 0.15Q101.39-0.8 101.69-1.8L101.69-1.8 105.64-2.35Q105.84-5.1 105.84-8.7L105.84-8.7 105.84-18Q105.84-21.5 104.97-23.05 104.09-24.6 101.79-24.6L101.79-24.6Q99.89-24.6 97.82-23.2 95.74-21.8 94.14-19.15L94.14-19.15 94.14-2.55 98.19-1.8Q98.39-1 98.19 0.2L98.19 0.2Q95.04 0.05 91.79 0.05L91.79 0.05Q89.49 0.05 85.29 0.15L85.29 0.15Q84.99-0.8 85.29-1.8L85.29-1.8 89.24-2.35Q89.44-5.1 89.44-8.7L89.44-8.7ZM137.69-8.7L137.69-17.85Q137.69-21.7 136.66-23.25 135.64-24.8 133.24-24.8L133.24-24.8Q129.54-24.8 125.79-19.25L125.79-19.25 125.79-2.55 129.84-1.8Q130.04-1 129.84 0.2L129.84 0.2Q126.69 0.05 123.39 0.05L123.39 0.05Q121.09 0.05 116.89 0.15L116.89 0.15Q116.59-0.8 116.89-1.8L116.89-1.8 120.84-2.35Q121.04-5.1 121.04-8.7L121.04-8.7 121.04-22.4Q121.04-23.4 120.89-24.25L120.89-24.25 116.94-24.75Q116.74-25.5 116.94-26.65L116.94-26.65Q120.39-26.9 125.54-27.7L125.54-27.7Q125.99-27.2 126.04-26.7L126.04-26.7Q125.79-25.4 125.79-22.25L125.79-22.25Q129.74-27.7 134.69-27.7L134.69-27.7Q142.44-27.7 142.44-20.35L142.44-20.35 142.44-2.55 146.49-1.8Q146.69-1 146.49 0.2L146.49 0.2Q143.34 0.05 140.04 0.05L140.04 0.05Q137.74 0.05 133.54 0.15L133.54 0.15Q133.24-0.8 133.54-1.8L133.54-1.8 137.49-2.35Q137.69-5.1 137.69-8.7L137.69-8.7ZM149.39-13.3L149.39-13.3Q149.39-16.3 150.26-18.93 151.14-21.55 152.79-23.5 154.44-25.45 156.76-26.58 159.09-27.7 161.99-27.7L161.99-27.7Q164.84-27.7 167.19-26.58 169.54-25.45 171.21-23.5 172.89-21.55 173.79-18.93 174.69-16.3 174.69-13.3L174.69-13.3Q174.69-10.2 173.76-7.6 172.84-5 171.16-3.08 169.49-1.15 167.14-0.08 164.79 1 161.99 1L161.99 1Q159.04 1 156.71-0.05 154.39-1.1 152.76-3 151.14-4.9 150.26-7.53 149.39-10.15 149.39-13.3ZM156.69-22.5L156.69-22.5Q154.54-19.45 154.54-13.3L154.54-13.3Q154.54-10.25 155.11-7.95 155.69-5.65 156.69-4.13 157.69-2.6 159.04-1.85 160.39-1.1 161.99-1.1L161.99-1.1Q163.54-1.1 164.94-1.85 166.34-2.6 167.34-4.13 168.34-5.65 168.94-7.95 169.54-10.25 169.54-13.3L169.54-13.3Q169.54-16.35 168.94-18.68 168.34-21 167.31-22.53 166.29-24.05 164.91-24.83 163.54-25.6 161.99-25.6L161.99-25.6Q158.89-25.6 156.69-22.5ZM186.69-31.7L186.69-31.7 186.69-2.55 190.74-1.8Q190.94-1 190.74 0.2L190.74 0.2Q187.59 0.05 184.28 0.05L184.28 0.05Q181.99 0.05 177.78 0.15L177.78 0.15Q177.49-0.8 177.78-1.8L177.78-1.8 181.74-2.35Q181.94-5.1 181.94-8.7L181.94-8.7 181.94-37.35 177.84-37.85Q177.64-38.6 177.84-39.75L177.84-39.75Q181.28-40 186.44-40.8L186.44-40.8Q186.89-40.3 186.94-39.8L186.94-39.8Q186.69-38.5 186.69-31.7ZM193.93-13.3L193.93-13.3Q193.93-16.3 194.81-18.93 195.68-21.55 197.33-23.5 198.98-25.45 201.31-26.58 203.63-27.7 206.53-27.7L206.53-27.7Q209.38-27.7 211.73-26.58 214.08-25.45 215.76-23.5 217.43-21.55 218.33-18.93 219.23-16.3 219.23-13.3L219.23-13.3Q219.23-10.2 218.31-7.6 217.38-5 215.71-3.08 214.03-1.15 211.68-0.08 209.33 1 206.53 1L206.53 1Q203.58 1 201.26-0.05 198.93-1.1 197.31-3 195.68-4.9 194.81-7.53 193.93-10.15 193.93-13.3ZM201.23-22.5L201.23-22.5Q199.08-19.45 199.08-13.3L199.08-13.3Q199.08-10.25 199.66-7.95 200.23-5.65 201.23-4.13 202.23-2.6 203.58-1.85 204.93-1.1 206.53-1.1L206.53-1.1Q208.08-1.1 209.48-1.85 210.88-2.6 211.88-4.13 212.88-5.65 213.48-7.95 214.08-10.25 214.08-13.3L214.08-13.3Q214.08-16.35 213.48-18.68 212.88-21 211.86-22.53 210.83-24.05 209.46-24.83 208.08-25.6 206.53-25.6L206.53-25.6Q203.43-25.6 201.23-22.5ZM227.38 0.55L227.38 0.55Q227.83 0.75 228.13 1.4L228.13 1.4Q226.48 2.75 226.48 5.45L226.48 5.45Q226.48 7.85 228.68 9.3 230.88 10.75 234.38 10.75L234.38 10.75Q237.98 10.75 240.38 9.43 242.78 8.1 242.78 5.7L242.78 5.7Q242.78 3.1 241.83 1.88 240.88 0.65 238.03 0.4L238.03 0.4 228.68-0.45Q227.13-0.65 226.1-2.08 225.08-3.5 225.08-4.85L225.08-4.85 228.43-10.4Q226.13-11.7 224.95-13.85 223.78-16 223.78-18.25L223.78-18.25Q223.78-22.5 226.93-25.1 230.08-27.7 234.18-27.7L234.18-27.7Q238.13-27.7 241.13-25.6L241.13-25.6Q241.38-32.45 246.23-32.7L246.23-32.7Q247.53-32.4 247.53-30.55L247.53-30.55Q247.53-29.55 247.33-28.35L247.33-28.35Q245.38-28.2 244.13-27.08 242.88-25.95 242.33-24.5L242.33-24.5Q244.83-22 244.83-18.25L244.83-18.25Q244.83-14.3 241.63-11.68 238.43-9.05 234.18-9.05L234.18-9.05Q231.93-9.05 230.13-9.65L230.13-9.65 228.43-5.2 240.88-3.95Q243.78-3.6 245.31-1.83 246.83-0.05 246.83 2.8L246.83 2.8Q246.83 7.8 243.23 10.48 239.63 13.15 233.48 13.15L233.48 13.15Q228.38 13.15 225.53 11.3 222.68 9.45 222.68 6.35L222.68 6.35Q222.68 4.25 224.03 2.63 225.38 1 227.38 0.55ZM228.28-18.25L228.28-18.25Q228.28-15.35 229.91-13.3 231.53-11.25 234.23-11.25L234.23-11.25Q236.88-11.25 238.58-13.28 240.28-15.3 240.28-18.25L240.28-18.25Q240.28-21.45 238.6-23.58 236.93-25.7 234.23-25.7L234.23-25.7Q231.68-25.7 229.98-23.55 228.28-21.4 228.28-18.25ZM257.93 7.4L257.93 7.4 261.13-0.15 251.43-24.05 247.53-24.85Q247.28-25.85 247.53-26.85L247.53-26.85Q250.28-26.65 254.23-26.65L254.23-26.65Q257.78-26.65 260.98-26.8L260.98-26.8Q261.28-25.8 260.98-24.85L260.98-24.85 256.68-24.15 261.43-12.9Q262.43-10.45 263.53-6.05L263.53-6.05 263.63-6.05Q264.48-9.05 265.98-12.65L265.98-12.65 270.33-24.3 266.43-24.85Q266.23-25.65 266.43-26.85L266.43-26.85Q269.18-26.65 271.78-26.65L271.78-26.65Q273.98-26.65 277.23-26.8L277.23-26.8Q277.53-25.8 277.23-24.85L277.23-24.85 273.28-24.3 260.08 8Q259.03 10.5 257.73 11.75 256.43 13 254.28 13L254.28 13Q252.58 13 251.65 12.58 250.73 12.15 249.78 10.95L249.78 10.95Q250.08 8.2 252.63 6.55L252.63 6.55Q254.68 8.85 256.13 8.85L256.13 8.85Q257.38 8.85 257.93 7.4Z" opacity="1" transform="matrix(1,0,0,1,0,0)" fill="#ffffff" class="slogan-text-1" data-fill-palette-color="quaternary" id="text-1"></path></svg></g></svg></g></svg></g></svg></g><g transform="matrix(1,0,0,1,28.530599311818797,0)"><svg viewBox="0 0 92.31366688326712 68.3360910694315" height="68.3360910694315" width="92.31366688326712"><g><svg xmlns="http://www.w3.org/2000/svg" xmlns:xlink="http://www.w3.org/1999/xlink" version="1.1" x="0" y="0" viewBox="3.8 15.8 92.4 68.4" enable-background="new 0 0 100 100" xml:space="preserve" height="68.3360910694315" width="92.31366688326712" class="icon-icon-0" data-fill-palette-color="quaternary" id="icon-0"><path d="M3.8 15.8V71.3H38.8V78.3H26.8V84.2H56.7V78.3H44.7V71.3H60.7V65.4H9.7V21.7H73.8V38.8H66.4V84.2H96.2V38.8H79.7V15.8zM90.3 78.3H72.3V44.8H90.2V78.3zM85.2 74.3H77.4V68.4H85.2z" fill="#ffffff" data-fill-palette-color="quaternary"></path></svg></g></svg></g><g></g></svg></g></svg></g></svg></g></svg></g><defs></defs></svg><rect width="333.90454557049503" height="333.90454557049503" fill="none" stroke="none" visibility="hidden"></rect></g></svg></g></svg>